# xmcd
#
# Track frame offsets:
#	150
#	9961
#	21012
#	35494
#	46102
#	55872
#	63344
#	75271
#	82377
#	100544
#	118675
#	130609
#	143908
#	151026
#	154510
#
# Disc length: 2315 seconds
#
# Revision: 5
# Processed by: cddbd v1.5.2PL0 Copyright (c) Steve Scherf et al.
# Submitted via: EasyCDDAExtractor 16.0.8.2
#
DISCID=a609090f
DTITLE=Κάλλας Μαρία - Lucia Di Lammermoor-Gaetano Donizetti 1
DYEAR=1953
DGENRE=Κλασική όπερα
TTITLE0=Άνευ ερμηνευτού - Preludio [όλο 1953, ορχηστρ.]
TTITLE1=Gino Sarri-χορωδία - Percorrete Le Spiagge Vicine [Act 1, Sc 1]
TTITLE2=Gino Sarri-Tito Gobbi-Rafaele Arie - Tu Sei Turbato!.. E N'Ho Ben Dond
TTITLE2=e [Act 1, Sc 1]
TTITLE3=Gino Sarri-Tito Gobbi-Rafaele Arie - Cruda, Funesta Smania [Act 1, Sc 
TTITLE3=1]
TTITLE4=Χορωδία-Gino Sarri-Tito Gobbi-Rafaele Arie - Il Tuo Dubbio È Omai Cert
TTITLE4=ezza [Act 1, Sc 1]
TTITLE5=Tito Gobbi-Rafaele Arie-χορωδία - La Pietade In Suo Favore [Act 1, Sc 
TTITLE5=1]
TTITLE6=Άνευ ερμηνευτού - Maestoso [ορχηστρ., Act 1, Sc 2]
TTITLE7=Κάλλας Μαρία-Anna Maria Canali - Ancor Non Giunse? [Act 1, Sc 2]
TTITLE8=Κάλλας Μαρία-Anna Maria Canali - Regnava Nel Silenzio [Act 1, Sc 2]
TTITLE9=Κάλλας Μαρία-Anna Maria Canali - Quando Rapito In Estasi [Act 1, Sc 2]
TTITLE10=Anna Maria Canali-Giuseppe di Stefano-Κάλλας Μαρία - Egli S'Avanza [A
TTITLE10=ct 1, Sc 2]
TTITLE11=Giuseppe di Stefano-Κάλλας Μαρία - Sulla Tomba Che Rinserra [Act 1, S
TTITLE11=c 2]
TTITLE12=Giuseppe di Stefano-Κάλλας Μαρία - Qui Di Sposa Eterna Fede [Act 1, S
TTITLE12=c 2]
TTITLE13=Giuseppe di Stefano-Κάλλας Μαρία - Ah, Talor Del Tuo Pensiero [Act 1,
TTITLE13=Sc 2]
TTITLE14=Κάλλας Μαρία-Giuseppe di Stefano - Verranno E Te Sull'Aure [Act 1, Sc
TTITLE14=2]
EXTD=YEAR: 1953
EXTT0=
EXTT1=
EXTT2=
EXTT3=
EXTT4=
EXTT5=
EXTT6=
EXTT7=
EXTT8=
EXTT9=
EXTT10=
EXTT11=
EXTT12=
EXTT13=
EXTT14=
PLAYORDER=
